<?xml version="1.0" standalone="no"?>
<!DOCTYPE svg PUBLIC "-//W3C//DTD SVG 20010904//EN"
 "http://www.w3.org/TR/2001/REC-SVG-20010904/DTD/svg10.dtd">
<svg version="1.0" xmlns="http://www.w3.org/2000/svg"
 width="835.000000pt" height="835.000000pt" viewBox="0 0 835.000000 835.000000"
 preserveAspectRatio="xMidYMid meet">
<metadata>
Created by potrace 1.11, written by Peter Selinger 2001-2013
</metadata>
<g transform="translate(0.000000,835.000000) scale(0.100000,-0.100000)"
fill="#000000" stroke="none">
<path d="M407 6671 c-24 -27 -27 -50 -13 -89 48 -135 358 -981 365 -997 5 -11
38 -101 74 -200 68 -188 130 -357 417 -1140 95 -258 208 -567 250 -685 43
-118 155 -426 250 -685 95 -258 230 -630 301 -825 71 -195 137 -362 146 -372
15 -16 40 -18 298 -18 256 0 283 2 297 18 9 9 145 228 304 487 158 259 366
598 462 755 267 434 318 517 461 753 l134 218 20 -33 c11 -18 201 -330 422
-693 222 -363 497 -815 613 -1005 116 -190 232 -379 259 -420 l48 -75 293 -3
c175 -1 300 2 311 7 10 6 32 47 49 93 76 206 151 411 282 768 77 212 150 408
160 435 11 28 49 129 84 225 35 96 150 410 255 696 105 287 191 525 191 528 0
3 9 25 19 49 10 23 81 211 156 417 76 206 169 461 207 565 39 105 85 231 103
280 72 198 217 591 225 610 31 75 100 275 100 291 0 11 -8 29 -19 40 -18 20
-27 20 -3764 21 -3446 0 -3747 -1 -3760 -16z"/>
<path d="M4003 3167 c-61 -106 -231 -401 -378 -657 -147 -256 -276 -477 -286
-492 -11 -15 -19 -29 -19 -32 0 -2 -40 -74 -90 -159 -49 -86 -90 -158 -90
-161 0 -3 443 -6 984 -6 l985 0 -121 208 c-67 114 -129 221 -138 237 -69 122
-723 1242 -728 1247 -4 4 -57 -79 -119 -185z"/>
</g>
</svg>
